<mxfile host="Electron" modified="2023-09-16T09:32:35.170Z" agent="Mozilla/5.0 (Windows NT 10.0; Win64; x64) AppleWebKit/537.36 (KHTML, like Gecko) draw.io/21.6.5 Chrome/114.0.5735.243 Electron/25.3.1 Safari/537.36" etag="nfAgZIseicEY-Ek2aC-b" version="21.6.5" type="device">
  <diagram name="Page-1" id="8rji0MJZMKIP9WhoCvuh">
    <mxGraphModel dx="1909" dy="1220" grid="0" gridSize="38" guides="1" tooltips="1" connect="1" arrows="1" fold="1" page="1" pageScale="1" pageWidth="1700" pageHeight="1100" background="none" math="0" shadow="0">
      <root>
        <mxCell id="0" />
        <mxCell id="1" parent="0" />
        <mxCell id="w2yPtdvZUZeBbUUJ6F2G-2" value="&lt;span style=&quot;font-size: 16px;&quot;&gt;EXECUTION AND MONITORING&lt;/span&gt;" style="rounded=1;whiteSpace=wrap;html=1;fillColor=#FFEE52;strokeColor=#36393d;gradientColor=none;gradientDirection=north;shadow=1;fontSize=16;glass=0;fontFamily=Helvetica;fontStyle=0;align=center;" parent="1" vertex="1">
          <mxGeometry x="1005" y="380" width="180" height="100" as="geometry" />
        </mxCell>
        <mxCell id="w2yPtdvZUZeBbUUJ6F2G-3" value="&lt;span style=&quot;font-size: 16px;&quot;&gt;CLOSURE&lt;/span&gt;" style="whiteSpace=wrap;html=1;rounded=1;fillColor=#FFEE52;strokeColor=#36393d;gradientColor=none;gradientDirection=north;shadow=1;fontSize=16;glass=0;fontFamily=Helvetica;fontStyle=0;align=center;" parent="1" vertex="1">
          <mxGeometry x="1420" y="380" width="180" height="100" as="geometry" />
        </mxCell>
        <mxCell id="w2yPtdvZUZeBbUUJ6F2G-7" value="&lt;span style=&quot;font-size: 16px;&quot;&gt;PLANNING&lt;/span&gt;" style="whiteSpace=wrap;html=1;rounded=1;fillColor=#FFEE52;strokeColor=#36393d;gradientColor=none;gradientDirection=north;shadow=1;fontSize=16;glass=0;fontFamily=Helvetica;fontStyle=0;align=center;" parent="1" vertex="1">
          <mxGeometry x="515" y="380" width="180" height="100" as="geometry" />
        </mxCell>
        <mxCell id="w2yPtdvZUZeBbUUJ6F2G-9" value="&lt;span style=&quot;font-size: 16px;&quot;&gt;INNITIATION&lt;/span&gt;" style="whiteSpace=wrap;html=1;rounded=1;fillColor=#FFEE52;strokeColor=#36393d;gradientColor=none;gradientDirection=north;shadow=1;fontSize=16;glass=0;fontFamily=Helvetica;fontStyle=0;align=center;" parent="1" vertex="1">
          <mxGeometry x="90" y="380" width="180" height="100" as="geometry" />
        </mxCell>
        <mxCell id="w2yPtdvZUZeBbUUJ6F2G-11" value="&lt;span style=&quot;font-size: 31px;&quot;&gt;MongoSafenet&lt;/span&gt;" style="rounded=1;whiteSpace=wrap;html=1;shadow=1;fillColor=#F8B7B0;glass=0;labelBackgroundColor=none;labelBorderColor=none;fontSize=31;strokeColor=#b85450;gradientColor=#EB6B66;fontStyle=0" parent="1" vertex="1">
          <mxGeometry x="750" y="170" width="270" height="120" as="geometry" />
        </mxCell>
        <mxCell id="w2yPtdvZUZeBbUUJ6F2G-12" value="&lt;span style=&quot;font-size: 16px;&quot;&gt;PROJECT CHARTER&lt;/span&gt;" style="rounded=1;whiteSpace=wrap;html=1;fillColor=#FFB300;strokeColor=#d79b00;gradientColor=#FFA500;shadow=1;fontSize=16;glass=0;fontFamily=Helvetica;fontStyle=0;align=center;" parent="1" vertex="1">
          <mxGeometry x="20" y="560" width="150" height="100" as="geometry" />
        </mxCell>
        <mxCell id="w2yPtdvZUZeBbUUJ6F2G-13" value="&lt;span style=&quot;font-size: 16px;&quot;&gt;SRS DOCUMENT&lt;/span&gt;" style="rounded=1;whiteSpace=wrap;html=1;fillColor=#FFB300;strokeColor=#d79b00;gradientColor=#FFA500;shadow=1;fontSize=16;glass=0;fontFamily=Helvetica;fontStyle=0;align=center;" parent="1" vertex="1">
          <mxGeometry x="180" y="560" width="150" height="100" as="geometry" />
        </mxCell>
        <mxCell id="w2yPtdvZUZeBbUUJ6F2G-16" value="&lt;span style=&quot;font-size: 16px;&quot;&gt;WBS&lt;/span&gt;" style="rounded=1;whiteSpace=wrap;html=1;fillColor=#FFB300;strokeColor=#d79b00;gradientColor=#FFA500;shadow=1;fontSize=16;glass=0;fontFamily=Helvetica;fontStyle=0;align=center;" parent="1" vertex="1">
          <mxGeometry x="370" y="560" width="150" height="100" as="geometry" />
        </mxCell>
        <mxCell id="w2yPtdvZUZeBbUUJ6F2G-17" style="edgeStyle=orthogonalEdgeStyle;rounded=0;orthogonalLoop=1;jettySize=auto;html=1;exitX=0.5;exitY=1;exitDx=0;exitDy=0;shadow=0;" parent="1" source="w2yPtdvZUZeBbUUJ6F2G-15" target="w2yPtdvZUZeBbUUJ6F2G-15" edge="1">
          <mxGeometry relative="1" as="geometry" />
        </mxCell>
        <mxCell id="w2yPtdvZUZeBbUUJ6F2G-18" value="" style="endArrow=classic;html=1;rounded=0;entryX=0.5;entryY=0;entryDx=0;entryDy=0;shadow=0;strokeWidth=2;" parent="1" target="w2yPtdvZUZeBbUUJ6F2G-15" edge="1">
          <mxGeometry width="50" height="50" relative="1" as="geometry">
            <mxPoint x="605" y="480" as="sourcePoint" />
            <mxPoint x="760" y="520" as="targetPoint" />
            <Array as="points" />
          </mxGeometry>
        </mxCell>
        <mxCell id="w2yPtdvZUZeBbUUJ6F2G-19" value="" style="endArrow=classic;html=1;rounded=0;entryX=0.5;entryY=0;entryDx=0;entryDy=0;exitX=0.618;exitY=0.994;exitDx=0;exitDy=0;exitPerimeter=0;shadow=0;strokeWidth=2;" parent="1" target="w2yPtdvZUZeBbUUJ6F2G-12" edge="1">
          <mxGeometry width="50" height="50" relative="1" as="geometry">
            <mxPoint x="180.3399999999997" y="480.0000000000001" as="sourcePoint" />
            <mxPoint x="140" y="590.42" as="targetPoint" />
            <Array as="points">
              <mxPoint x="95" y="520" />
            </Array>
          </mxGeometry>
        </mxCell>
        <mxCell id="w2yPtdvZUZeBbUUJ6F2G-20" value="" style="endArrow=classic;html=1;rounded=0;exitX=0.5;exitY=1;exitDx=0;exitDy=0;shadow=0;strokeWidth=2;" parent="1" source="w2yPtdvZUZeBbUUJ6F2G-2" edge="1">
          <mxGeometry width="50" height="50" relative="1" as="geometry">
            <mxPoint x="1030" y="450" as="sourcePoint" />
            <mxPoint x="935" y="560" as="targetPoint" />
            <Array as="points">
              <mxPoint x="935" y="520" />
            </Array>
          </mxGeometry>
        </mxCell>
        <mxCell id="w2yPtdvZUZeBbUUJ6F2G-21" value="" style="endArrow=classic;html=1;rounded=0;entryX=0.5;entryY=0;entryDx=0;entryDy=0;exitX=0.5;exitY=1;exitDx=0;exitDy=0;shadow=0;strokeWidth=2;" parent="1" source="w2yPtdvZUZeBbUUJ6F2G-3" target="w2yPtdvZUZeBbUUJ6F2G-37" edge="1">
          <mxGeometry width="50" height="50" relative="1" as="geometry">
            <mxPoint x="1230" y="450" as="sourcePoint" />
            <mxPoint x="1230" y="707" as="targetPoint" />
            <Array as="points">
              <mxPoint x="1589" y="520" />
            </Array>
          </mxGeometry>
        </mxCell>
        <mxCell id="w2yPtdvZUZeBbUUJ6F2G-28" value="&lt;span style=&quot;font-size: 16px;&quot;&gt;DESIGN&lt;/span&gt;" style="rounded=1;whiteSpace=wrap;html=1;fillColor=#D4D4D4;gradientColor=#B3B3B3;strokeColor=#666666;shadow=1;fontSize=16;glass=0;fontFamily=Helvetica;fontStyle=0;align=center;" parent="1" vertex="1">
          <mxGeometry x="860" y="560" width="150" height="100" as="geometry" />
        </mxCell>
        <mxCell id="w2yPtdvZUZeBbUUJ6F2G-29" value="&lt;span style=&quot;font-size: 16px;&quot;&gt;DEPLOY&lt;/span&gt;" style="rounded=1;whiteSpace=wrap;html=1;fillColor=#D4D4D4;gradientColor=#B3B3B3;strokeColor=#666666;shadow=1;fontSize=16;glass=0;fontFamily=Helvetica;fontStyle=0;align=center;" parent="1" vertex="1">
          <mxGeometry x="1340" y="560" width="150" height="100" as="geometry" />
        </mxCell>
        <mxCell id="w2yPtdvZUZeBbUUJ6F2G-30" value="&lt;span style=&quot;font-size: 16px;&quot;&gt;TEST&lt;/span&gt;" style="rounded=1;whiteSpace=wrap;html=1;fillColor=#D4D4D4;gradientColor=#B3B3B3;strokeColor=#666666;shadow=1;fontSize=16;glass=0;fontFamily=Helvetica;fontStyle=0;align=center;" parent="1" vertex="1">
          <mxGeometry x="1180" y="560" width="150" height="100" as="geometry" />
        </mxCell>
        <mxCell id="w2yPtdvZUZeBbUUJ6F2G-31" value="&lt;span style=&quot;font-size: 16px;&quot;&gt;DEVELOP&lt;/span&gt;" style="rounded=1;whiteSpace=wrap;html=1;fillColor=#D4D4D4;gradientColor=#B3B3B3;strokeColor=#666666;shadow=1;fontSize=16;glass=0;fontFamily=Helvetica;fontStyle=0;align=center;" parent="1" vertex="1">
          <mxGeometry x="1020" y="560" width="150" height="100" as="geometry" />
        </mxCell>
        <mxCell id="w2yPtdvZUZeBbUUJ6F2G-32" value="&lt;span style=&quot;font-size: 16px;&quot;&gt;TEST PLAN&lt;/span&gt;" style="rounded=1;whiteSpace=wrap;html=1;fillColor=#FFB300;strokeColor=#d79b00;gradientColor=#FFA500;shadow=1;fontSize=16;glass=0;fontFamily=Helvetica;fontStyle=0;align=center;" parent="1" vertex="1">
          <mxGeometry x="940" y="740" width="150" height="100" as="geometry" />
        </mxCell>
        <mxCell id="w2yPtdvZUZeBbUUJ6F2G-33" value="&lt;span style=&quot;font-size: 16px;&quot;&gt;DESIGN SPECIFICATION&lt;/span&gt;" style="rounded=1;whiteSpace=wrap;html=1;fillColor=#FFB300;strokeColor=#d79b00;gradientColor=#FFA500;shadow=1;fontSize=16;glass=0;fontFamily=Helvetica;fontStyle=0;align=center;" parent="1" vertex="1">
          <mxGeometry x="770" y="740" width="150" height="100" as="geometry" />
        </mxCell>
        <mxCell id="w2yPtdvZUZeBbUUJ6F2G-34" value="&lt;span style=&quot;font-size: 16px;&quot;&gt;ANALYSE&lt;/span&gt;" style="rounded=1;whiteSpace=wrap;html=1;fillColor=#BCEBFF;strokeColor=#10739e;shadow=1;gradientDirection=north;strokeWidth=1;fontSize=16;glass=0;fontFamily=Helvetica;fontStyle=0;align=center;gradientColor=#92C7FC;" parent="1" vertex="1">
          <mxGeometry x="850" y="940" width="150" height="100" as="geometry" />
        </mxCell>
        <mxCell id="w2yPtdvZUZeBbUUJ6F2G-35" value="&lt;span style=&quot;font-size: 16px;&quot;&gt;RESEARCH&lt;/span&gt;" style="rounded=1;whiteSpace=wrap;html=1;fillColor=#BCEBFF;strokeColor=#10739e;shadow=1;gradientDirection=north;strokeWidth=1;fontSize=16;glass=0;fontFamily=Helvetica;fontStyle=0;align=center;gradientColor=#92C7FC;" parent="1" vertex="1">
          <mxGeometry x="690" y="940" width="150" height="100" as="geometry" />
        </mxCell>
        <mxCell id="w2yPtdvZUZeBbUUJ6F2G-36" value="&lt;span style=&quot;font-size: 16px;&quot;&gt;DESIGN&lt;/span&gt;" style="rounded=1;whiteSpace=wrap;html=1;fillColor=#BCEBFF;strokeColor=#10739e;shadow=1;gradientDirection=north;strokeWidth=1;fontSize=16;glass=0;fontFamily=Helvetica;fontStyle=0;align=center;gradientColor=#92C7FC;" parent="1" vertex="1">
          <mxGeometry x="530" y="940" width="150" height="100" as="geometry" />
        </mxCell>
        <mxCell id="w2yPtdvZUZeBbUUJ6F2G-37" value="&lt;span style=&quot;font-size: 16px;&quot;&gt;LESSON LEARNT &amp;amp; PROJECT REPORT&lt;/span&gt;" style="rounded=1;whiteSpace=wrap;html=1;fillColor=#FFB300;strokeColor=#d79b00;gradientColor=#FFA500;shadow=1;fontSize=16;glass=0;fontFamily=Helvetica;fontStyle=0;align=center;" parent="1" vertex="1">
          <mxGeometry x="1507" y="560" width="163" height="100" as="geometry" />
        </mxCell>
        <mxCell id="w2yPtdvZUZeBbUUJ6F2G-38" value="&lt;span style=&quot;font-size: 16px;&quot;&gt;SCRIPT&lt;/span&gt;" style="rounded=1;whiteSpace=wrap;html=1;fillColor=#FFB300;strokeColor=#d79b00;gradientColor=#FFA500;shadow=1;fontSize=16;glass=0;fontFamily=Helvetica;fontStyle=0;align=center;" parent="1" vertex="1">
          <mxGeometry x="1120" y="740" width="150" height="100" as="geometry" />
        </mxCell>
        <mxCell id="w2yPtdvZUZeBbUUJ6F2G-39" value="&lt;span style=&quot;font-size: 16px;&quot;&gt;TEST RESULT&lt;/span&gt;" style="rounded=1;whiteSpace=wrap;html=1;fillColor=#FFB300;strokeColor=#d79b00;gradientColor=#FFA500;shadow=1;fontSize=16;glass=0;fontFamily=Helvetica;fontStyle=0;align=center;" parent="1" vertex="1">
          <mxGeometry x="1290" y="740" width="150" height="100" as="geometry" />
        </mxCell>
        <mxCell id="w2yPtdvZUZeBbUUJ6F2G-40" value="&lt;span style=&quot;font-size: 16px;&quot;&gt;APP VIDEO &amp;amp; INSTALLATION GUIDE&lt;/span&gt;" style="rounded=1;whiteSpace=wrap;html=1;fillColor=#FFB300;strokeColor=#d79b00;gradientColor=#FFA500;shadow=1;fontSize=16;glass=0;fontFamily=Helvetica;fontStyle=0;align=center;" parent="1" vertex="1">
          <mxGeometry x="1460" y="740" width="150" height="100" as="geometry" />
        </mxCell>
        <mxCell id="w2yPtdvZUZeBbUUJ6F2G-47" value="" style="endArrow=classic;html=1;rounded=0;exitX=0.5;exitY=1;exitDx=0;exitDy=0;entryX=0.5;entryY=0;entryDx=0;entryDy=0;shadow=0;strokeWidth=2;" parent="1" source="w2yPtdvZUZeBbUUJ6F2G-31" target="w2yPtdvZUZeBbUUJ6F2G-38" edge="1">
          <mxGeometry width="50" height="50" relative="1" as="geometry">
            <mxPoint x="940" y="640" as="sourcePoint" />
            <mxPoint x="1200" y="660" as="targetPoint" />
            <Array as="points">
              <mxPoint x="1195" y="700" />
            </Array>
          </mxGeometry>
        </mxCell>
        <mxCell id="w2yPtdvZUZeBbUUJ6F2G-48" value="" style="endArrow=classic;html=1;rounded=0;entryX=0.5;entryY=0;entryDx=0;entryDy=0;exitX=0.5;exitY=1;exitDx=0;exitDy=0;shadow=0;strokeWidth=2;" parent="1" source="w2yPtdvZUZeBbUUJ6F2G-30" target="w2yPtdvZUZeBbUUJ6F2G-39" edge="1">
          <mxGeometry width="50" height="50" relative="1" as="geometry">
            <mxPoint x="1010" y="730" as="sourcePoint" />
            <mxPoint x="1060" y="680" as="targetPoint" />
            <Array as="points">
              <mxPoint x="1365" y="700" />
            </Array>
          </mxGeometry>
        </mxCell>
        <mxCell id="w2yPtdvZUZeBbUUJ6F2G-49" value="" style="endArrow=classic;html=1;rounded=0;exitX=0.5;exitY=1;exitDx=0;exitDy=0;entryX=0.5;entryY=0;entryDx=0;entryDy=0;shadow=0;strokeWidth=2;" parent="1" source="w2yPtdvZUZeBbUUJ6F2G-29" target="w2yPtdvZUZeBbUUJ6F2G-40" edge="1">
          <mxGeometry width="50" height="50" relative="1" as="geometry">
            <mxPoint x="940" y="750" as="sourcePoint" />
            <mxPoint x="1390" y="740" as="targetPoint" />
            <Array as="points">
              <mxPoint x="1535" y="700" />
            </Array>
          </mxGeometry>
        </mxCell>
        <mxCell id="w2yPtdvZUZeBbUUJ6F2G-51" value="&lt;span style=&quot;font-size: 16px;&quot;&gt;CONNECTION STRING&lt;/span&gt;" style="rounded=1;whiteSpace=wrap;html=1;fillColor=#BCEBFF;strokeColor=#10739e;shadow=1;gradientDirection=north;strokeWidth=1;fontSize=16;glass=0;fontFamily=Helvetica;fontStyle=0;align=center;gradientColor=#92C7FC;" parent="1" vertex="1">
          <mxGeometry x="1035" y="940" width="150" height="100" as="geometry" />
        </mxCell>
        <mxCell id="w2yPtdvZUZeBbUUJ6F2G-52" value="&lt;span style=&quot;font-size: 16px;&quot;&gt;MONGODB BACKUP&lt;/span&gt;" style="rounded=1;whiteSpace=wrap;html=1;fillColor=#BCEBFF;strokeColor=#10739e;shadow=1;gradientDirection=north;strokeWidth=1;fontSize=16;glass=0;fontFamily=Helvetica;fontStyle=0;align=center;gradientColor=#92C7FC;" parent="1" vertex="1">
          <mxGeometry x="1200" y="940" width="150" height="100" as="geometry" />
        </mxCell>
        <mxCell id="w2yPtdvZUZeBbUUJ6F2G-53" value="&lt;span style=&quot;font-size: 16px;&quot;&gt;CLEAN LOCAL BACKUP&lt;/span&gt;" style="rounded=1;whiteSpace=wrap;html=1;fillColor=#BCEBFF;strokeColor=#10739e;shadow=1;gradientDirection=north;strokeWidth=1;fontSize=16;glass=0;fontFamily=Helvetica;fontStyle=0;align=center;gradientColor=#92C7FC;" parent="1" vertex="1">
          <mxGeometry x="1360" y="940" width="150" height="100" as="geometry" />
        </mxCell>
        <mxCell id="w2yPtdvZUZeBbUUJ6F2G-54" value="&lt;span style=&quot;font-size: 16px;&quot;&gt;UPLOAD BACKUP TO AWS S3&lt;/span&gt;" style="rounded=1;whiteSpace=wrap;html=1;fillColor=#BCEBFF;strokeColor=#10739e;shadow=1;gradientDirection=north;strokeWidth=1;fontSize=16;glass=0;fontFamily=Helvetica;fontStyle=0;align=center;gradientColor=#92C7FC;" parent="1" vertex="1">
          <mxGeometry x="1520" y="940" width="150" height="100" as="geometry" />
        </mxCell>
        <mxCell id="w2yPtdvZUZeBbUUJ6F2G-61" value="" style="endArrow=classic;html=1;rounded=0;entryX=0.538;entryY=0;entryDx=0;entryDy=0;entryPerimeter=0;exitX=0.5;exitY=1;exitDx=0;exitDy=0;shadow=0;strokeWidth=2;" parent="1" source="w2yPtdvZUZeBbUUJ6F2G-9" target="w2yPtdvZUZeBbUUJ6F2G-13" edge="1">
          <mxGeometry width="50" height="50" relative="1" as="geometry">
            <mxPoint x="270" y="470" as="sourcePoint" />
            <mxPoint x="240" y="550" as="targetPoint" />
            <Array as="points">
              <mxPoint x="260" y="520" />
            </Array>
          </mxGeometry>
        </mxCell>
        <mxCell id="w2yPtdvZUZeBbUUJ6F2G-64" value="" style="endArrow=classic;html=1;rounded=0;exitX=0.5;exitY=1;exitDx=0;exitDy=0;shadow=0;strokeWidth=2;" parent="1" source="w2yPtdvZUZeBbUUJ6F2G-11" edge="1">
          <mxGeometry width="50" height="50" relative="1" as="geometry">
            <mxPoint x="880" y="340" as="sourcePoint" />
            <mxPoint x="590" y="380" as="targetPoint" />
            <Array as="points">
              <mxPoint x="885" y="340" />
              <mxPoint x="590" y="340" />
            </Array>
          </mxGeometry>
        </mxCell>
        <mxCell id="w2yPtdvZUZeBbUUJ6F2G-69" value="&lt;div style=&quot;font-size: 35px;&quot;&gt;&lt;br style=&quot;font-size: 35px;&quot;&gt;&lt;/div&gt;&lt;div style=&quot;font-size: 35px;&quot;&gt;&lt;span style=&quot;background-color: initial; font-size: 35px;&quot;&gt;&lt;font style=&quot;font-size: 35px;&quot;&gt;WORK BREAKDOWN STRUCTURE –&lt;/font&gt;&lt;/span&gt;&lt;/div&gt;&lt;font style=&quot;font-size: 35px;&quot;&gt;&lt;div style=&quot;font-size: 35px;&quot;&gt;&lt;span style=&quot;background-color: initial; font-size: 35px;&quot;&gt;&lt;font style=&quot;font-size: 35px;&quot;&gt;PIYUSH RAJ KUMAR&lt;/font&gt;&lt;/span&gt;&lt;/div&gt;&lt;div style=&quot;font-size: 35px;&quot;&gt;&lt;font style=&quot;font-size: 35px;&quot;&gt;&lt;br style=&quot;font-size: 35px;&quot;&gt;&lt;/font&gt;&lt;/div&gt;&lt;div style=&quot;font-size: 35px;&quot;&gt;&lt;span style=&quot;background-color: initial; font-size: 35px;&quot;&gt;&lt;font style=&quot;font-size: 35px;&quot;&gt;IP23 Live Project Deliverables–&lt;/font&gt;&lt;/span&gt;&lt;/div&gt;&lt;div style=&quot;font-size: 35px;&quot;&gt;&lt;span style=&quot;background-color: initial; font-size: 35px;&quot;&gt;&lt;font style=&quot;font-size: 35px;&quot;&gt;Cloud Computing&lt;/font&gt;&lt;/span&gt;&lt;/div&gt;&lt;div style=&quot;font-size: 35px;&quot;&gt;&lt;br style=&quot;font-size: 35px;&quot;&gt;&lt;/div&gt;&lt;br style=&quot;font-size: 35px;&quot;&gt;&lt;/font&gt;" style="text;align=left;html=1;verticalAlign=middle;whiteSpace=wrap;rounded=0;fontSize=35;fontStyle=0;horizontal=1;fillColor=none;gradientColor=default;strokeColor=none;strokeWidth=0;shadow=0;glass=0;" parent="1" vertex="1">
          <mxGeometry x="11" y="46" width="630" height="250" as="geometry" />
        </mxCell>
        <mxCell id="XVx_e8cNl1wnOM44v09m-3" value="" style="endArrow=classic;html=1;rounded=0;entryX=1;entryY=0.5;entryDx=0;entryDy=0;exitX=0.5;exitY=1;exitDx=0;exitDy=0;shadow=0;strokeWidth=2;" parent="1" source="w2yPtdvZUZeBbUUJ6F2G-7" edge="1">
          <mxGeometry width="50" height="50" relative="1" as="geometry">
            <mxPoint x="570" y="400" as="sourcePoint" />
            <mxPoint x="440" y="560.0000000000002" as="targetPoint" />
            <Array as="points">
              <mxPoint x="440" y="520" />
            </Array>
          </mxGeometry>
        </mxCell>
        <mxCell id="w2yPtdvZUZeBbUUJ6F2G-15" value="&lt;span style=&quot;font-size: 16px;&quot;&gt;PROJECT SCHEDULE&lt;/span&gt;" style="rounded=1;whiteSpace=wrap;html=1;fillColor=#FFB300;strokeColor=#d79b00;gradientColor=#FFA500;shadow=1;fontSize=16;glass=0;fontFamily=Helvetica;fontStyle=0;align=center;" parent="1" vertex="1">
          <mxGeometry x="530" y="560" width="150" height="100" as="geometry" />
        </mxCell>
        <mxCell id="XVx_e8cNl1wnOM44v09m-4" value="" style="endArrow=classic;html=1;rounded=0;entryX=0.5;entryY=0;entryDx=0;entryDy=0;exitX=0.5;exitY=1;exitDx=0;exitDy=0;shadow=0;strokeWidth=2;" parent="1" source="w2yPtdvZUZeBbUUJ6F2G-7" target="w2yPtdvZUZeBbUUJ6F2G-14" edge="1">
          <mxGeometry width="50" height="50" relative="1" as="geometry">
            <mxPoint x="590" y="480" as="sourcePoint" />
            <mxPoint x="765" y="550.0000000000002" as="targetPoint" />
            <Array as="points">
              <mxPoint x="765" y="520" />
            </Array>
          </mxGeometry>
        </mxCell>
        <mxCell id="w2yPtdvZUZeBbUUJ6F2G-14" value="&lt;span style=&quot;font-size: 16px;&quot;&gt;RAID LOGS&lt;/span&gt;" style="rounded=1;whiteSpace=wrap;html=1;fillColor=#FFB300;strokeColor=#d79b00;gradientColor=#FFA500;shadow=1;fontSize=16;glass=0;fontFamily=Helvetica;fontStyle=0;align=center;" parent="1" vertex="1">
          <mxGeometry x="690" y="560" width="150" height="100" as="geometry" />
        </mxCell>
        <mxCell id="XVx_e8cNl1wnOM44v09m-5" style="edgeStyle=none;curved=1;rounded=0;orthogonalLoop=1;jettySize=auto;html=1;exitX=0.5;exitY=0;exitDx=0;exitDy=0;fontSize=12;startSize=8;endSize=8;shadow=0;" parent="1" source="w2yPtdvZUZeBbUUJ6F2G-28" target="w2yPtdvZUZeBbUUJ6F2G-28" edge="1">
          <mxGeometry relative="1" as="geometry" />
        </mxCell>
        <mxCell id="XVx_e8cNl1wnOM44v09m-9" value="" style="endArrow=classic;html=1;rounded=0;fontSize=12;startSize=8;endSize=8;curved=1;entryX=0.5;entryY=0;entryDx=0;entryDy=0;exitX=0.5;exitY=1;exitDx=0;exitDy=0;shadow=0;strokeWidth=2;" parent="1" source="w2yPtdvZUZeBbUUJ6F2G-2" target="w2yPtdvZUZeBbUUJ6F2G-31" edge="1">
          <mxGeometry width="50" height="50" relative="1" as="geometry">
            <mxPoint x="1100" y="470" as="sourcePoint" />
            <mxPoint x="840" y="540" as="targetPoint" />
          </mxGeometry>
        </mxCell>
        <mxCell id="XVx_e8cNl1wnOM44v09m-11" value="" style="endArrow=classic;html=1;rounded=0;exitX=0.5;exitY=1;exitDx=0;exitDy=0;shadow=0;strokeWidth=2;" parent="1" source="w2yPtdvZUZeBbUUJ6F2G-2" edge="1">
          <mxGeometry width="50" height="50" relative="1" as="geometry">
            <mxPoint x="1410" y="480" as="sourcePoint" />
            <mxPoint x="1250" y="560" as="targetPoint" />
            <Array as="points">
              <mxPoint x="1250" y="520" />
            </Array>
          </mxGeometry>
        </mxCell>
        <mxCell id="XVx_e8cNl1wnOM44v09m-13" value="" style="endArrow=classic;html=1;rounded=0;entryX=0.5;entryY=0;entryDx=0;entryDy=0;shadow=0;strokeWidth=2;" parent="1" target="w2yPtdvZUZeBbUUJ6F2G-29" edge="1">
          <mxGeometry width="50" height="50" relative="1" as="geometry">
            <mxPoint x="1100" y="480" as="sourcePoint" />
            <mxPoint x="945" y="570" as="targetPoint" />
            <Array as="points">
              <mxPoint x="1415" y="520" />
            </Array>
          </mxGeometry>
        </mxCell>
        <mxCell id="XVx_e8cNl1wnOM44v09m-14" value="" style="endArrow=classic;html=1;rounded=0;exitX=0.5;exitY=1;exitDx=0;exitDy=0;entryX=0.5;entryY=0;entryDx=0;entryDy=0;shadow=0;strokeWidth=2;" parent="1" source="w2yPtdvZUZeBbUUJ6F2G-28" target="w2yPtdvZUZeBbUUJ6F2G-32" edge="1">
          <mxGeometry width="50" height="50" relative="1" as="geometry">
            <mxPoint x="1160" y="660" as="sourcePoint" />
            <mxPoint x="1000" y="740" as="targetPoint" />
            <Array as="points">
              <mxPoint x="1015" y="700" />
            </Array>
          </mxGeometry>
        </mxCell>
        <mxCell id="XVx_e8cNl1wnOM44v09m-15" value="" style="endArrow=classic;html=1;rounded=0;exitX=0.5;exitY=1;exitDx=0;exitDy=0;entryX=0.5;entryY=0;entryDx=0;entryDy=0;shadow=0;strokeWidth=2;" parent="1" source="w2yPtdvZUZeBbUUJ6F2G-28" target="w2yPtdvZUZeBbUUJ6F2G-33" edge="1">
          <mxGeometry width="50" height="50" relative="1" as="geometry">
            <mxPoint x="980" y="660" as="sourcePoint" />
            <mxPoint x="820" y="740" as="targetPoint" />
            <Array as="points">
              <mxPoint x="845" y="700" />
            </Array>
          </mxGeometry>
        </mxCell>
        <mxCell id="XVx_e8cNl1wnOM44v09m-16" value="" style="endArrow=classic;html=1;rounded=0;exitX=0.5;exitY=1;exitDx=0;exitDy=0;entryX=0.533;entryY=0;entryDx=0;entryDy=0;entryPerimeter=0;shadow=0;strokeWidth=2;" parent="1" source="w2yPtdvZUZeBbUUJ6F2G-38" target="w2yPtdvZUZeBbUUJ6F2G-53" edge="1">
          <mxGeometry width="50" height="50" relative="1" as="geometry">
            <mxPoint x="1510" y="860" as="sourcePoint" />
            <mxPoint x="1420" y="940" as="targetPoint" />
            <Array as="points">
              <mxPoint x="1440" y="900" />
            </Array>
          </mxGeometry>
        </mxCell>
        <mxCell id="XVx_e8cNl1wnOM44v09m-17" value="" style="endArrow=classic;html=1;rounded=0;exitX=0.5;exitY=1;exitDx=0;exitDy=0;entryX=0.5;entryY=0;entryDx=0;entryDy=0;shadow=0;strokeWidth=2;" parent="1" source="w2yPtdvZUZeBbUUJ6F2G-38" target="w2yPtdvZUZeBbUUJ6F2G-52" edge="1">
          <mxGeometry width="50" height="50" relative="1" as="geometry">
            <mxPoint x="1350" y="860" as="sourcePoint" />
            <mxPoint x="1260" y="940" as="targetPoint" />
            <Array as="points">
              <mxPoint x="1275" y="900" />
            </Array>
          </mxGeometry>
        </mxCell>
        <mxCell id="XVx_e8cNl1wnOM44v09m-18" value="" style="endArrow=classic;html=1;rounded=0;exitX=0.5;exitY=1;exitDx=0;exitDy=0;entryX=0.5;entryY=0;entryDx=0;entryDy=0;shadow=0;strokeWidth=2;" parent="1" target="w2yPtdvZUZeBbUUJ6F2G-51" edge="1">
          <mxGeometry width="50" height="50" relative="1" as="geometry">
            <mxPoint x="1200" y="840" as="sourcePoint" />
            <mxPoint x="1110" y="920" as="targetPoint" />
            <Array as="points">
              <mxPoint x="1110" y="900" />
            </Array>
          </mxGeometry>
        </mxCell>
        <mxCell id="XVx_e8cNl1wnOM44v09m-19" value="" style="endArrow=classic;html=1;rounded=0;entryX=0.5;entryY=0;entryDx=0;entryDy=0;shadow=0;strokeWidth=2;" parent="1" target="w2yPtdvZUZeBbUUJ6F2G-34" edge="1">
          <mxGeometry width="50" height="50" relative="1" as="geometry">
            <mxPoint x="850" y="840" as="sourcePoint" />
            <mxPoint x="920" y="940" as="targetPoint" />
            <Array as="points">
              <mxPoint x="925" y="900" />
            </Array>
          </mxGeometry>
        </mxCell>
        <mxCell id="XVx_e8cNl1wnOM44v09m-20" value="" style="endArrow=classic;html=1;rounded=0;exitX=0.5;exitY=1;exitDx=0;exitDy=0;entryX=0.5;entryY=0;entryDx=0;entryDy=0;shadow=0;strokeWidth=2;" parent="1" target="w2yPtdvZUZeBbUUJ6F2G-36" edge="1">
          <mxGeometry width="50" height="50" relative="1" as="geometry">
            <mxPoint x="850" y="840" as="sourcePoint" />
            <mxPoint x="760" y="920" as="targetPoint" />
            <Array as="points">
              <mxPoint x="605" y="900" />
            </Array>
          </mxGeometry>
        </mxCell>
        <mxCell id="XVx_e8cNl1wnOM44v09m-21" value="" style="endArrow=classic;html=1;rounded=0;exitX=0.5;exitY=1;exitDx=0;exitDy=0;entryX=0.5;entryY=0;entryDx=0;entryDy=0;shadow=0;strokeWidth=2;" parent="1" target="w2yPtdvZUZeBbUUJ6F2G-35" edge="1">
          <mxGeometry width="50" height="50" relative="1" as="geometry">
            <mxPoint x="850" y="840" as="sourcePoint" />
            <mxPoint x="760" y="920" as="targetPoint" />
            <Array as="points">
              <mxPoint x="765" y="900" />
            </Array>
          </mxGeometry>
        </mxCell>
        <mxCell id="XVx_e8cNl1wnOM44v09m-25" value="" style="endArrow=classic;html=1;rounded=0;exitX=0.5;exitY=1;exitDx=0;exitDy=0;entryX=0.5;entryY=0;entryDx=0;entryDy=0;shadow=0;strokeWidth=2;" parent="1" source="w2yPtdvZUZeBbUUJ6F2G-38" target="w2yPtdvZUZeBbUUJ6F2G-54" edge="1">
          <mxGeometry width="50" height="50" relative="1" as="geometry">
            <mxPoint x="1360" y="840" as="sourcePoint" />
            <mxPoint x="1605" y="940" as="targetPoint" />
            <Array as="points">
              <mxPoint x="1595" y="900" />
            </Array>
          </mxGeometry>
        </mxCell>
        <mxCell id="XVx_e8cNl1wnOM44v09m-26" value="" style="endArrow=classic;html=1;rounded=0;exitX=0.5;exitY=1;exitDx=0;exitDy=0;shadow=0;strokeWidth=2;" parent="1" source="w2yPtdvZUZeBbUUJ6F2G-11" edge="1">
          <mxGeometry width="50" height="50" relative="1" as="geometry">
            <mxPoint x="880" y="290" as="sourcePoint" />
            <mxPoint x="1510" y="380" as="targetPoint" />
            <Array as="points">
              <mxPoint x="885" y="340" />
              <mxPoint x="1090" y="340" />
              <mxPoint x="1510" y="340" />
            </Array>
          </mxGeometry>
        </mxCell>
        <mxCell id="XVx_e8cNl1wnOM44v09m-27" value="" style="endArrow=classic;html=1;rounded=0;exitX=0.5;exitY=1;exitDx=0;exitDy=0;shadow=0;strokeWidth=2;" parent="1" source="w2yPtdvZUZeBbUUJ6F2G-11" edge="1">
          <mxGeometry width="50" height="50" relative="1" as="geometry">
            <mxPoint x="1385" y="290" as="sourcePoint" />
            <mxPoint x="1090" y="380" as="targetPoint" />
            <Array as="points">
              <mxPoint x="885" y="340" />
              <mxPoint x="1090" y="340" />
            </Array>
          </mxGeometry>
        </mxCell>
        <mxCell id="XVx_e8cNl1wnOM44v09m-28" value="" style="endArrow=classic;html=1;rounded=0;exitX=0.5;exitY=1;exitDx=0;exitDy=0;shadow=0;strokeWidth=2;" parent="1" source="w2yPtdvZUZeBbUUJ6F2G-11" edge="1">
          <mxGeometry width="50" height="50" relative="1" as="geometry">
            <mxPoint x="475" y="290" as="sourcePoint" />
            <mxPoint x="180" y="380" as="targetPoint" />
            <Array as="points">
              <mxPoint x="885" y="340" />
              <mxPoint x="590" y="340" />
              <mxPoint x="180" y="340" />
            </Array>
          </mxGeometry>
        </mxCell>
      </root>
    </mxGraphModel>
  </diagram>
</mxfile>
